
<svg version="1.0" xmlns="http://www.w3.org/2000/svg"
 width="600.000000pt" height="600.000000pt" viewBox="0 0 600.000000 600.000000"
 preserveAspectRatio="xMidYMid meet">

<g transform="translate(0.000000,600.000000) scale(0.100000,-0.100000)"
fill="#000000" stroke="none">
<path d="M2850 5790 c-446 -35 -892 -181 -1265 -416 -323 -202 -649 -524 -858
-844 -76 -118 -159 -272 -149 -279 5 -3 209 -163 454 -354 246 -192 450 -348
455 -347 4 2 18 29 30 62 206 547 705 962 1274 1059 107 18 150 21 314 16 139
-4 216 -11 287 -26 245 -53 480 -168 662 -325 l68 -59 394 394 c217 217 394
397 394 401 0 16 -215 186 -345 273 -228 152 -415 243 -673 325 -141 46 -367
94 -512 109 -143 16 -401 21 -530 11z"/>
<path d="M3060 2965 l0 -535 751 0 751 0 -7 -42 c-11 -68 -54 -196 -96 -287
-80 -172 -228 -358 -379 -473 -66 -50 -69 -54 -52 -69 9 -10 208 -166 442
-348 l424 -331 79 77 c375 368 623 889 719 1508 38 245 36 694 -4 963 l-10 72
-1309 0 -1309 0 0 -535z"/>
</g>
</svg>
