<svg width="14" height="22" viewBox="0 0 14 22" fill="none" xmlns="http://www.w3.org/2000/svg">
<path d="M5.74479 17.4277C4.79997 17.4558 4.79872 18.7882 5.74479 18.8166H8.49312C9.43803 18.7886 9.43928 17.4561 8.49312 17.4277H5.74479Z" fill="white"/>
<path d="M12.8775 17.6556C12.9763 17.6556 13.0711 17.6148 13.1409 17.542C13.2108 17.4692 13.25 17.3705 13.25 17.2676V2.91233C13.2487 2.41786 13.0642 1.94301 12.7348 1.58696C12.4055 1.23092 11.9569 1.02123 11.4826 1.00167C11.4308 1.00711 2.50488 0.991972 2.4606 1.00653C1.99689 1.03957 1.56247 1.25465 1.245 1.60835C0.927522 1.96206 0.750626 2.42806 0.75 2.91233V19.0893C0.750555 19.5959 0.943942 20.0816 1.28774 20.4398C1.63153 20.798 2.09765 20.9994 2.58384 21H11.4162C11.9024 20.9994 12.3685 20.7979 12.7123 20.4397C13.0561 20.0816 13.2494 19.5959 13.25 19.0893V16.4167C13.2323 15.9001 12.5201 15.9066 12.5051 16.4167V19.0893C12.5047 19.3901 12.3899 19.6784 12.1858 19.8911C11.9817 20.1038 11.7049 20.2235 11.4162 20.2238H2.58366C2.29501 20.2234 2.01829 20.1038 1.81419 19.8911C1.61009 19.6784 1.49528 19.3901 1.49493 19.0893V2.91233C1.49528 2.65298 1.58076 2.40155 1.73719 2.19981C1.89362 1.99807 2.11158 1.85815 2.35487 1.8033C2.60657 2.58138 2.85454 3.1241 3.6322 3.51913C4.02102 3.71663 4.44811 3.81863 4.88067 3.81728H8.92376C9.35632 3.81863 9.78342 3.71663 10.1722 3.51913C10.9222 3.13817 11.2601 2.5071 11.6454 1.8033C11.8886 1.8582 12.1065 1.99814 12.2629 2.19987C12.4193 2.40161 12.5047 2.65301 12.5051 2.91233V17.2676C12.5051 17.3705 12.5443 17.4692 12.6142 17.542C12.684 17.6148 12.7787 17.6556 12.8775 17.6556ZM9.84538 2.82089C9.5583 2.96672 9.24295 3.04203 8.92357 3.04102H4.88049C4.54982 3.04159 4.22371 2.9607 3.92876 2.80495C3.63381 2.64921 3.47628 2.05591 3.28119 1.77774H10.7187C10.56 2.25927 10.3181 2.58073 9.84538 2.82089Z" fill="white" stroke="white" stroke-width="0.977781"/>
</svg>
