<svg width="20" height="22" viewBox="0 0 20 22" fill="none" xmlns="http://www.w3.org/2000/svg">
<path d="M19.7071 9.95497C19.5196 10.1425 19.2652 10.2479 19 10.2479C18.7348 10.2479 18.4804 10.3532 18.2929 10.5408C18.1054 10.7283 18 10.9826 18 11.2479C18 11.5131 18.1054 11.7674 18.2929 11.955C18.4804 12.1425 18.7348 12.2479 19 12.2479C19.2652 12.2479 19.5196 12.3532 19.7071 12.5408C19.8946 12.7283 20 12.9826 20 13.2479V17.2479C20 17.5131 19.8946 17.7674 19.7071 17.955C19.5196 18.1425 19.2652 18.2479 19 18.2479H4V16.2479H6H8H18V14.0679C17.4208 13.8577 16.9205 13.4742 16.5668 12.9697C16.2132 12.4652 16.0235 11.864 16.0235 11.2479C16.0235 10.6317 16.2132 10.0306 16.5668 9.52603C16.9205 9.02149 17.4208 8.63807 18 8.42787V6.24787C18 5.69558 18.4477 5.24787 19 5.24787C19.5523 5.24787 20 5.69558 20 6.24787V9.24787C20 9.51308 19.8946 9.76744 19.7071 9.95497Z" fill="#000000"/>
<path d="M1 4.24787H16.5L16 6.24787H8H6H2V8.42787C2.57915 8.63807 3.07954 9.02149 3.43316 9.52603C3.78678 10.0306 3.97648 10.6317 3.97648 11.2479C3.97648 11.864 3.78678 12.4652 3.43316 12.9697C3.07954 13.4742 2.57915 13.8577 2 14.0679V17.2479C2 17.8002 1.55228 18.2479 1 18.2479C0.447715 18.2479 0 17.8002 0 17.2479V13.2479C0 12.9826 0.105357 12.7283 0.292893 12.5408C0.48043 12.3532 0.734784 12.2479 1 12.2479C1.26522 12.2479 1.51957 12.1425 1.70711 11.955C1.89464 11.7674 2 11.5131 2 11.2479C2 10.9826 1.89464 10.7283 1.70711 10.5408C1.51957 10.3532 1.26522 10.2479 1 10.2479C0.734784 10.2479 0.48043 10.1425 0.292893 9.95497C0.105357 9.76744 0 9.51308 0 9.24787V5.24787C0 4.98265 0.105357 4.7283 0.292893 4.54076C0.48043 4.35322 0.734784 4.24787 1 4.24787Z" fill="#000000"/>
<path d="M16.9244 4.84475C16.8766 4.72167 16.805 4.60923 16.7136 4.51388L12.9755 0.776072C12.8819 0.682587 12.7708 0.60843 12.6485 0.557836C12.5262 0.507242 12.3951 0.481201 12.2627 0.481201C11.9954 0.481201 11.739 0.587269 11.55 0.776072C11.4564 0.869558 11.3821 0.980541 11.3315 1.10269C11.2808 1.22483 11.2547 1.35574 11.2547 1.48795C11.2547 1.75496 11.3609 2.01103 11.55 2.19983L13.5815 4.22311H5.9619C5.69565 4.22311 5.44031 4.32874 5.25204 4.51678C5.06378 4.70481 4.95801 4.95984 4.95801 5.22576C4.95801 5.49168 5.06378 5.7467 5.25204 5.93474C5.44031 6.12277 5.69565 6.22841 5.9619 6.22841H13.5815L11.5197 8.27619C11.4256 8.3694 11.3509 8.48029 11.2999 8.60248C11.2489 8.72466 11.2227 8.85571 11.2227 8.98807C11.2227 9.12043 11.2489 9.25148 11.2999 9.37367C11.3509 9.49585 11.4256 9.60674 11.5197 9.69995C11.613 9.79393 11.724 9.86852 11.8463 9.91942C11.9687 9.97033 12.0999 9.99653 12.2324 9.99653C12.3649 9.99653 12.4962 9.97033 12.6185 9.91942C12.7408 9.86852 12.8519 9.79393 12.9452 9.69995L16.7136 5.93764C16.805 5.84228 16.8766 5.72984 16.9244 5.60676C17.0248 5.36266 17.0248 5.08886 16.9244 4.84475Z" fill="#000000"/>
<path d="M3.03359 17.6362C3.08137 17.7593 3.15302 17.8717 3.24441 17.9671L6.98251 21.7049C7.07611 21.7984 7.18723 21.8725 7.30953 21.9231C7.43183 21.9737 7.5629 21.9998 7.69527 21.9998C7.96261 21.9998 8.219 21.8937 8.40804 21.7049C8.50164 21.6114 8.57589 21.5004 8.62655 21.3783C8.6772 21.2561 8.70328 21.1252 8.70328 20.993C8.70328 20.726 8.59708 20.4699 8.40804 20.2811L6.37656 18.2578L13.9961 18.2578C14.2624 18.2578 14.5177 18.1522 14.706 17.9642C14.8942 17.7761 15 17.5211 15 17.2552C15 16.9893 14.8942 16.7343 14.706 16.5462C14.5177 16.3582 14.2624 16.2526 13.9961 16.2526L6.37656 16.2525L8.43836 14.2048C8.53245 14.1116 8.60713 14.0007 8.6581 13.8785C8.70907 13.7563 8.73531 13.6252 8.73531 13.4929C8.73531 13.3605 8.70907 13.2295 8.6581 13.1073C8.60713 12.9851 8.53245 12.8742 8.43836 12.781C8.34503 12.687 8.234 12.6124 8.11167 12.5615C7.98933 12.5106 7.85812 12.4844 7.72559 12.4844C7.59307 12.4844 7.46185 12.5106 7.33952 12.5615C7.21718 12.6124 7.10615 12.687 7.01283 12.781L3.24441 16.5433C3.15302 16.6387 3.08137 16.7511 3.03359 16.8742C2.93319 17.1183 2.93319 17.3921 3.03359 17.6362Z" fill="#000000"/>
</svg>
