

<svg version="1.0" xmlns="http://www.w3.org/2000/svg"
 width="225.000000pt" height="225.000000pt" viewBox="0 0 225.000000 225.000000"
 preserveAspectRatio="xMidYMid meet">

<g transform="translate(0.000000,225.000000) scale(0.100000,-0.100000)"
fill="#000000" stroke="none">
<path d="M963 2156 c-268 -51 -516 -209 -661 -420 -44 -64 -82 -128 -82 -139
0 -3 57 -49 128 -103 70 -53 145 -113 166 -131 l40 -33 40 82 c76 158 243 293
411 333 162 39 358 2 477 -88 24 -18 48 -36 55 -40 7 -4 68 51 157 140 l146
147 -27 24 c-58 48 -198 136 -262 163 -126 53 -215 71 -371 75 -96 2 -169 -1
-217 -10z"/>
<path d="M1150 1116 c0 -168 2 -195 16 -200 25 -9 92 -7 99 4 4 6 15 6 30 0
16 -6 34 -6 51 0 14 6 31 10 37 9 7 0 3 -4 -7 -8 -11 -4 16 -7 62 -7 44 0 79
2 77 5 -1 3 21 6 50 6 29 0 48 -3 42 -8 -7 -4 13 -6 43 -5 l55 3 -1 -32 c-1
-18 -16 -62 -33 -99 -17 -36 -28 -71 -24 -77 3 -5 2 -7 -4 -4 -15 10 -83 -70
-77 -90 5 -14 4 -15 -4 -4 -8 12 -15 10 -39 -9 -17 -14 -21 -21 -9 -16 17 6
17 5 5 -11 -8 -9 -9 -14 -2 -10 7 4 26 -5 45 -21 18 -15 58 -46 88 -69 30 -23
65 -51 77 -62 12 -12 26 -21 31 -21 4 0 20 -13 35 -28 22 -23 25 -31 14 -42
-6 -7 2 -4 18 7 27 19 47 39 109 111 19 22 19 22 0 45 l-19 22 21 -18 c21 -17
22 -17 36 5 43 66 79 141 74 154 -3 8 -2 12 3 9 13 -7 23 28 15 51 -4 13 -3
15 3 6 12 -15 47 97 63 198 13 83 13 343 1 335 -6 -3 -7 9 -4 30 l6 35 -492 0
-491 0 0 -194z m963 -246 c-3 -12 -8 -19 -11 -16 -5 6 5 36 12 36 2 0 2 -9 -1
-20z m-383 -48 c0 -15 -2 -15 -10 -2 -13 20 -13 33 0 25 6 -3 10 -14 10 -23z
m-50 -162 c0 -5 -5 -10 -11 -10 -5 0 -7 5 -4 10 3 6 8 10 11 10 2 0 4 -4 4
-10z m301 -127 c-12 -20 -14 -14 -5 12 4 9 9 14 11 11 3 -2 0 -13 -6 -23z"/>
<path d="M524 885 l-29 -27 29 20 30 20 22 -49 c13 -27 25 -49 28 -49 5 0 -38
97 -47 106 -2 3 -18 -7 -33 -21z"/>
<path d="M446 824 c-11 -8 -16 -14 -10 -14 13 0 39 18 34 24 -3 2 -14 -2 -24
-10z"/>
<path d="M619 773 c6 -12 11 -24 11 -26 0 -9 -28 -1 -43 12 -13 10 -15 9 -10
-7 3 -13 13 -18 31 -17 32 1 37 15 17 40 -16 19 -16 19 -6 -2z"/>
<path d="M369 763 c-13 -16 -12 -17 4 -4 9 7 17 15 17 17 0 8 -8 3 -21 -13z"/>
<path d="M650 728 c0 -4 6 -13 13 -20 6 -8 25 -28 40 -45 31 -33 40 -61 26
-79 -6 -8 -2 -11 13 -9 34 4 35 4 15 19 -10 8 -15 16 -10 19 12 8 46 -20 39
-31 -3 -6 1 -13 10 -16 8 -3 13 -10 10 -15 -17 -27 55 -74 78 -51 7 7 0 10
-22 10 -37 0 -42 13 -10 27 20 9 18 12 -38 49 -32 21 -83 63 -111 93 -29 30
-53 52 -53 49z m200 -179 c0 -4 -7 -10 -16 -13 -22 -8 -26 -8 -19 4 4 6 1 18
-6 26 -11 13 -9 14 14 3 15 -7 27 -16 27 -20z"/>
<path d="M285 700 c-3 -5 -2 -10 4 -10 5 0 13 5 16 10 3 6 2 10 -4 10 -5 0
-13 -4 -16 -10z"/>
<path d="M645 679 c-4 -6 -4 -13 -1 -16 3 -4 6 0 6 7 0 9 7 7 23 -6 l22 -19
-19 23 c-22 25 -23 26 -31 11z"/>
<path d="M293 655 c8 -6 17 -19 20 -30 3 -12 5 -8 4 10 -1 23 -6 31 -20 31
-15 0 -16 -2 -4 -11z"/>
<path d="M226 638 c3 -4 10 -5 16 -2 6 4 15 0 20 -7 8 -12 9 -11 5 1 -2 8 -13
16 -25 16 -12 1 -19 -3 -16 -8z"/>
<path d="M253 596 c16 -34 52 -43 54 -14 2 16 0 17 -14 3 -8 -9 -18 -13 -21
-10 -3 3 0 11 6 17 7 7 12 17 12 23 0 5 -5 2 -11 -8 -10 -18 -11 -18 -25 0
-13 16 -13 15 -1 -11z"/>
<path d="M1440 549 c-19 -10 -29 -18 -22 -19 14 0 72 28 72 35 0 8 -13 4 -50
-16z"/>
<path d="M1358 513 c7 -3 16 -2 19 1 4 3 -2 6 -13 5 -11 0 -14 -3 -6 -6z"/>
<path d="M960 500 c-18 -12 -2 -12 25 0 13 6 15 9 5 9 -8 0 -22 -4 -30 -9z"/>
<path d="M1290 500 c-20 -6 -21 -8 -5 -8 11 0 29 3 40 8 25 11 -1 11 -35 0z"/>
<path d="M1468 503 c7 -3 16 -2 19 1 4 3 -2 6 -13 5 -11 0 -14 -3 -6 -6z"/>
<path d="M1039 487 c4 -4 43 -7 87 -5 l79 3 -87 5 c-48 3 -83 1 -79 -3z"/>
<path d="M341 464 c13 -17 30 -31 37 -31 7 0 9 3 5 6 -4 4 -21 17 -37 31 l-30
25 25 -31z"/>
<path d="M355 480 c3 -5 8 -10 11 -10 2 0 4 5 4 10 0 6 -5 10 -11 10 -5 0 -7
-4 -4 -10z"/>
<path d="M415 381 c21 -22 43 -41 48 -41 4 0 -3 10 -16 23 -14 12 -25 27 -26
32 0 6 -4 10 -8 10 -5 0 -15 4 -23 9 -8 5 3 -10 25 -33z"/>
<path d="M448 403 c7 -3 16 -2 19 1 4 3 -2 6 -13 5 -11 0 -14 -3 -6 -6z"/>
<path d="M465 381 c-3 -5 -2 -12 3 -15 5 -3 9 1 9 9 0 17 -3 19 -12 6z"/>
<path d="M516 294 c21 -18 41 -31 44 -27 3 3 -1 8 -8 10 -6 3 -10 9 -6 14 3 5
2 9 -3 8 -24 -4 -35 2 -25 14 8 9 4 12 -15 13 -23 2 -22 0 13 -32z"/>
<path d="M1766 314 c-3 -8 -2 -12 4 -9 6 3 10 2 10 -4 0 -14 -61 -46 -80 -43
-12 2 -12 1 -2 -6 11 -8 11 -10 -2 -15 -8 -3 -16 -1 -18 5 -2 6 -10 3 -17 -6
-12 -14 -12 -16 4 -10 13 6 16 4 10 -6 -4 -7 20 6 53 29 43 29 60 47 59 61 -2
24 -12 26 -21 4z"/>
<path d="M1690 310 c-13 -8 -12 -10 3 -10 9 0 17 5 17 10 0 12 -1 12 -20 0z"/>
<path d="M597 239 c15 -14 123 -67 117 -57 -4 6 -26 19 -50 30 -44 19 -60 35
-25 23 11 -3 22 -2 24 2 3 5 -12 9 -34 9 -22 1 -36 -3 -32 -7z"/>
<path d="M1605 210 c3 -5 13 -7 23 -4 9 3 6 -2 -8 -10 -30 -18 -21 -21 15 -4
18 8 22 14 13 20 -18 11 -50 10 -43 -2z"/>
<path d="M770 160 c-9 -6 -10 -10 -3 -10 6 0 15 5 18 10 8 12 4 12 -15 0z"/>
<path d="M1520 150 c-8 -5 -10 -10 -5 -10 6 0 17 5 25 10 8 5 11 10 5 10 -5 0
-17 -5 -25 -10z"/>
<path d="M831 141 c-27 -17 24 -22 65 -6 36 14 26 14 -36 -1 -20 -4 -22 -3
-10 5 18 13 1 15 -19 2z"/>
<path d="M940 134 c-22 -12 -23 -14 -5 -13 11 0 31 6 45 14 22 12 22 14 5 14
-11 -1 -31 -7 -45 -15z"/>
<path d="M1380 140 c14 -4 34 -8 45 -8 16 0 15 2 -5 8 -14 4 -34 8 -45 8 -16
0 -15 -2 5 -8z"/>
<path d="M1460 141 c12 -9 13 -11 1 -11 -8 0 -12 -2 -9 -5 3 -3 16 -1 29 4 13
5 19 10 12 10 -6 1 -20 4 -30 7 -15 5 -15 4 -3 -5z"/>
<path d="M888 113 c7 -3 16 -2 19 1 4 3 -2 6 -13 5 -11 0 -14 -3 -6 -6z"/>
<path d="M1353 108 c8 -4 27 -3 43 1 26 8 25 9 -13 8 -25 -1 -37 -4 -30 -9z"/>
<path d="M928 103 c7 -3 16 -2 19 1 4 3 -2 6 -13 5 -11 0 -14 -3 -6 -6z"/>
<path d="M1288 98 c6 -6 18 -8 28 -6 14 3 12 5 -9 10 -19 3 -25 2 -19 -4z"/>
<path d="M968 93 c7 -3 16 -2 19 1 4 3 -2 6 -13 5 -11 0 -14 -3 -6 -6z"/>
<path d="M1058 83 c12 -2 32 -2 45 0 12 2 2 4 -23 4 -25 0 -35 -2 -22 -4z"/>
<path d="M1158 83 c18 -2 45 -2 60 0 15 2 0 4 -33 4 -33 0 -45 -2 -27 -4z"/>
</g>
</svg>
