<svg width="20" height="16" viewBox="0 0 20 16" fill="none" xmlns="http://www.w3.org/2000/svg">
<path d="M7 5.97615C6.73478 5.97615 6.48043 6.08276 6.29289 6.27253C6.10536 6.4623 6 6.71968 6 6.98806V9.01186C6 9.28024 6.10536 9.53762 6.29289 9.72739C6.48043 9.91716 6.73478 10.0238 7 10.0238C7.26522 10.0238 7.51957 9.91716 7.70711 9.72739C7.89464 9.53762 8 9.28024 8 9.01186V6.98806C8 6.71968 7.89464 6.4623 7.70711 6.27253C7.51957 6.08276 7.26522 5.97615 7 5.97615ZM19 6.98806C19.2652 6.98806 19.5196 6.88144 19.7071 6.69167C19.8946 6.50191 20 6.24452 20 5.97615V1.92853C20 1.66016 19.8946 1.40278 19.7071 1.21301C19.5196 1.02324 19.2652 0.916626 19 0.916626H1C0.734784 0.916626 0.48043 1.02324 0.292893 1.21301C0.105357 1.40278 0 1.66016 0 1.92853V5.97615C0 6.24452 0.105357 6.50191 0.292893 6.69167C0.48043 6.88144 0.734784 6.98806 1 6.98806C1.26522 6.98806 1.51957 7.09467 1.70711 7.28444C1.89464 7.4742 2 7.73159 2 7.99996C2 8.26833 1.89464 8.52572 1.70711 8.71548C1.51957 8.90525 1.26522 9.01186 1 9.01186C0.734784 9.01186 0.48043 9.11848 0.292893 9.30824C0.105357 9.49801 0 9.7554 0 10.0238V14.0714C0 14.3398 0.105357 14.5971 0.292893 14.7869C0.48043 14.9767 0.734784 15.0833 1 15.0833H19C19.2652 15.0833 19.5196 14.9767 19.7071 14.7869C19.8946 14.5971 20 14.3398 20 14.0714V10.0238C20 9.7554 19.8946 9.49801 19.7071 9.30824C19.5196 9.11848 19.2652 9.01186 19 9.01186C18.7348 9.01186 18.4804 8.90525 18.2929 8.71548C18.1054 8.52572 18 8.26833 18 7.99996C18 7.73159 18.1054 7.4742 18.2929 7.28444C18.4804 7.09467 18.7348 6.98806 19 6.98806ZM18 5.14639C17.4208 5.3591 16.9205 5.74708 16.5668 6.25763C16.2132 6.76817 16.0235 7.37651 16.0235 7.99996C16.0235 8.62341 16.2132 9.23175 16.5668 9.74229C16.9205 10.2528 17.4208 10.6408 18 10.8535V13.0595H8C8 12.7911 7.89464 12.5337 7.70711 12.344C7.51957 12.1542 7.26522 12.0476 7 12.0476C6.73478 12.0476 6.48043 12.1542 6.29289 12.344C6.10536 12.5337 6 12.7911 6 13.0595H2V10.8535C2.57915 10.6408 3.07954 10.2528 3.43316 9.74229C3.78678 9.23175 3.97648 8.62341 3.97648 7.99996C3.97648 7.37651 3.78678 6.76817 3.43316 6.25763C3.07954 5.74708 2.57915 5.3591 2 5.14639V2.94044H6C6 3.20881 6.10536 3.46619 6.29289 3.65596C6.48043 3.84573 6.73478 3.95234 7 3.95234C7.26522 3.95234 7.51957 3.84573 7.70711 3.65596C7.89464 3.46619 8 3.20881 8 2.94044H18V5.14639Z" fill="#000000"/>
</svg>
